<svg xmlns="http://www.w3.org/2000/svg" viewBox="0 0 100 100">
  <defs>
    <clipPath id="lens-clip">
      <circle cx="65" cy="65" r="26" />
    </clipPath>
  </defs>

  <g stroke="#111827" stroke-width="5" fill="none" stroke-linejoin="round">
    <polygon points="50,15 85,35 50,55 15,35" />
    <polygon points="15,35 50,55 50,95 15,75" />
    <polygon points="50,55 85,35 85,75 50,95" />
    <line x1="15" y1="35" x2="50" y2="95" />
    <line x1="15" y1="75" x2="50" y2="55" />
    <line x1="50" y1="55" x2="85" y2="75" />
    <line x1="85" y1="35" x2="50" y2="95" />
  </g>

  <g clip-path="url(#lens-clip)">
    <circle cx="65" cy="65" r="26" fill="#111827" />
    <g stroke="#111827" stroke-width="4" stroke-linejoin="round">
      <polygon points="50,15 85,35 50,55 15,35" fill="#D97706" />
      <polygon points="15,35 50,55 50,95 15,75" fill="#B45309" />
      <polygon points="50,55 85,35 85,75 50,95" fill="#92400E" />
      <line x1="15" y1="35" x2="50" y2="95" stroke="#F59E0B" stroke-width="4" />
      <line x1="15" y1="75" x2="50" y2="55" stroke="#F59E0B" stroke-width="4" />
      <line x1="50" y1="55" x2="85" y2="75" stroke="#F59E0B" strokeWidth="4" />
      <line x1="85" y1="35" x2="50" y2="95" stroke="#F59E0B" strokeWidth="4" />
    </g>
  </g>

  <circle cx="65" cy="65" r="26" stroke="#111827" stroke-width="5" fill="none" />
  <line x1="83" y1="83" x2="96" y2="96" stroke="#111827" stroke-width="8" stroke-linecap="round" />
</svg>